<svg xmlns="http://www.w3.org/2000/svg" fill="none" viewBox="0 0 180 37"><path fill="#000" d="M91.82 23.54c-3.52 0-5.34-1.54-5.34-4.82V10.1h3.3v8.52c0 2.06 1.04 3.1 2.58 3.1s2.58-1.03 2.58-3.1V10.1h3.3v8.62c0 3.28-1.82 4.82-5.34 4.82Zm12.44-5.3c0-2.06 1.32-3.3 3.42-3.3 2.06 0 3.42 1.24 3.42 3.3 0 2.05-1.36 3.3-3.42 3.3-2.1 0-3.42-1.25-3.42-3.3Zm-3.2-5.46h3.3v10.92h-3.3V12.78Zm16.7 5.46c0-2.06 1.32-3.3 3.42-3.3 2.06 0 3.42 1.24 3.42 3.3 0 2.05-1.36 3.3-3.42 3.3-2.1 0-3.42-1.25-3.42-3.3Zm-3.2-5.46h3.3v10.92h-3.3V12.78Zm18 0h3.3v8.2h4.5v2.72h-7.8V12.78Zm11.54 10.92V12.78h3.3v10.92h-3.3Zm11.8 0L158.42 10.1h3.5l5.12 13.6h-3.3l-1.12-3.28h-5.56l-1.12 3.28h-3.3Zm3.14-5.74-2-5.84-2 5.84h4Zm12.3-5.18h3.3v8.2h4.5v2.72h-7.8V12.78Z"/><path fill="#000" d="M81.02 23.72c.16 0 .3-.02.44-.02.32 0 .63.02.93.02 3.3 0 5.8-1.9 5.8-5.32 0-3.42-2.5-5.32-5.8-5.32-2.18 0-4.82.72-6.22 1.64v-.9H73v14.1h3.14v-5.22c.8-.52 2.08-.82 3.36-.82 1.54 0 2.52.76 2.52 2.2 0 1.42-.94 2.1-2.4 2.1-.5 0-.96-.06-1.38-.14l-.32.02c-.14 0-.27.02-.4.02-1.42 0-2.22-.3-3.04-.62l-.4.2c.9.38 2.06.66 3.52.66Zm.9-6.94c.92 0 1.58-.5 1.58-1.46 0-.96-.66-1.46-1.58-1.46-.88 0-1.7.3-2.18.6.5.9 1.22 1.32 2.18 1.32Z"/><path fill="#000" d="M70.5 24c4.1 0 6.4-2.22 6.4-5.44 0-3.24-2.3-5.46-6.4-5.46-4.1 0-6.4 2.22-6.4 5.46 0 3.22 2.3 5.44 6.4 5.44Zm0-2.88c-2.1 0-3.1-1.4-3.1-2.56 0-1.18 1-2.58 3.1-2.58s3.1 1.4 3.1 2.58c0 1.16-1 2.56-3.1 2.56Z"/><path fill="#000" d="M0 36.4V0h11.4l22.6 36.4H22.6L0 0v36.4Z"/></svg>